<?xml version="1.0" encoding="utf-8"?>
<!-- Generator: Adobe Illustrator 17.1.0, SVG Export Plug-In . SVG Version: 6.00 Build 0)  -->
<!DOCTYPE svg PUBLIC "-//W3C//DTD SVG 1.1//EN" "http://www.w3.org/Graphics/SVG/1.1/DTD/svg11.dtd">
<svg version="1.1" xmlns="http://www.w3.org/2000/svg" xmlns:xlink="http://www.w3.org/1999/xlink" x="0px" y="0px"
	 viewBox="0 0 512 204.5" enable-background="new 0 0 512 204.5" xml:space="preserve">
<g id="Layer_1">
	<g>
		<g>
			<g>
				<polygon fill="#7C1F5E" points="186.9,50.6 160.7,146.9 138.3,140.8 125.9,59.9 78.9,67.1 90.6,24.4 				"/>
			</g>
			<g>
				<polygon fill="#7C1F5E" points="136.5,159.3 42.3,173.7 27.9,79.6 77.6,72 122,65.2 133.4,139.5 				"/>
			</g>
		</g>
		<g>
			<path fill="#7C1F5E" d="M224.1,77.2c3.4,0,6.2,0.4,8.6,1.2c2.4,0.8,4.4,1.9,5.9,3.3c1.6,1.4,2.7,3,3.4,4.9
				c0.7,1.9,1.1,3.9,1.1,6.1c0,2.4-0.4,4.6-1.1,6.5c-0.8,2-1.9,3.7-3.5,5.1c-1.6,1.4-3.6,2.5-6,3.3c-2.4,0.8-5.3,1.2-8.5,1.2h-5.8
				v15.9h-11V77.2H224.1z M224.1,100.5c2.9,0,4.9-0.7,6.2-2.1c1.3-1.4,1.9-3.3,1.9-5.8c0-1.1-0.2-2.1-0.5-3
				c-0.3-0.9-0.8-1.7-1.5-2.3c-0.7-0.6-1.5-1.1-2.5-1.5c-1-0.3-2.2-0.5-3.6-0.5h-5.8v15.1H224.1z"/>
			<path fill="#7C1F5E" d="M256.7,96.1c1-1.8,2.2-3.3,3.6-4.3c1.4-1,2.9-1.6,4.7-1.6c1.5,0,2.8,0.4,3.7,1.1l-0.7,7.5
				c-0.1,0.5-0.3,0.8-0.5,1c-0.2,0.2-0.6,0.3-1,0.3c-0.2,0-0.4,0-0.7,0c-0.3,0-0.6,0-0.9-0.1c-0.3,0-0.6-0.1-0.9-0.1
				c-0.3,0-0.6,0-0.9,0c-1.5,0-2.7,0.4-3.5,1.2c-0.9,0.8-1.6,1.9-2.2,3.3v20.6h-10.1V90.9h6c0.5,0,0.9,0,1.3,0.1
				c0.3,0.1,0.6,0.2,0.8,0.4c0.2,0.2,0.4,0.4,0.5,0.7c0.1,0.3,0.2,0.7,0.3,1.1L256.7,96.1z"/>
			<path fill="#7C1F5E" d="M287.2,90.4c2.6,0,4.9,0.4,7,1.2c2.1,0.8,3.9,2,5.4,3.5c1.5,1.5,2.7,3.3,3.5,5.5c0.8,2.1,1.3,4.6,1.3,7.2
				c0,2.7-0.4,5.1-1.3,7.3c-0.8,2.2-2,4-3.5,5.5c-1.5,1.5-3.3,2.7-5.4,3.5c-2.1,0.8-4.5,1.2-7,1.2c-2.6,0-5-0.4-7.1-1.2
				c-2.1-0.8-4-2-5.5-3.5c-1.5-1.5-2.7-3.4-3.6-5.5c-0.8-2.2-1.3-4.6-1.3-7.3c0-2.7,0.4-5.1,1.3-7.2c0.8-2.1,2-4,3.6-5.5
				c1.5-1.5,3.4-2.7,5.5-3.5C282.2,90.8,284.6,90.4,287.2,90.4z M287.2,117.8c2.3,0,4-0.8,5.1-2.5c1.1-1.6,1.7-4.1,1.7-7.5
				c0-3.4-0.6-5.8-1.7-7.5c-1.1-1.6-2.8-2.5-5.1-2.5c-2.4,0-4.2,0.8-5.3,2.5c-1.1,1.6-1.7,4.1-1.7,7.5c0,3.4,0.6,5.9,1.7,7.5
				C283,117,284.8,117.8,287.2,117.8z"/>
			<path fill="#7C1F5E" d="M334.5,98.9c-0.3,0.4-0.6,0.7-0.9,0.9c-0.3,0.2-0.7,0.3-1.2,0.3c-0.5,0-1-0.1-1.4-0.4
				c-0.4-0.2-0.9-0.5-1.4-0.8c-0.5-0.3-1.1-0.6-1.8-0.8c-0.7-0.2-1.5-0.4-2.5-0.4c-1.2,0-2.3,0.2-3.2,0.7c-0.9,0.5-1.7,1.1-2.2,2
				c-0.6,0.8-1,1.9-1.3,3.1c-0.3,1.2-0.4,2.6-0.4,4.2c0,3.2,0.6,5.7,1.9,7.5c1.3,1.7,3,2.6,5.2,2.6c1.2,0,2.1-0.1,2.8-0.4
				c0.7-0.3,1.3-0.6,1.7-1c0.5-0.4,0.9-0.7,1.3-1c0.4-0.3,0.9-0.5,1.5-0.5c0.8,0,1.4,0.3,1.8,0.9l2.9,3.6c-1,1.2-2.1,2.2-3.3,2.9
				c-1.2,0.8-2.3,1.3-3.5,1.8c-1.2,0.4-2.4,0.7-3.6,0.9c-1.2,0.2-2.4,0.2-3.6,0.2c-2.1,0-4-0.4-5.9-1.2c-1.9-0.8-3.5-1.9-5-3.4
				c-1.4-1.5-2.6-3.3-3.4-5.5c-0.8-2.2-1.3-4.7-1.3-7.5c0-2.4,0.4-4.7,1.1-6.8c0.7-2.1,1.8-4,3.2-5.5c1.4-1.6,3.2-2.8,5.3-3.7
				c2.1-0.9,4.5-1.3,7.3-1.3c2.7,0,5,0.4,7,1.3c2,0.9,3.8,2.1,5.4,3.7L334.5,98.9z"/>
			<path fill="#7C1F5E" d="M349.1,109.7c0.3,2.8,1.2,4.9,2.6,6.2c1.4,1.3,3.2,1.9,5.4,1.9c1.2,0,2.2-0.1,3-0.4
				c0.9-0.3,1.6-0.6,2.3-0.9c0.7-0.3,1.3-0.7,1.8-0.9c0.6-0.3,1.1-0.4,1.7-0.4c0.8,0,1.4,0.3,1.8,0.9l2.9,3.6
				c-1,1.2-2.2,2.2-3.4,2.9c-1.2,0.8-2.5,1.3-3.7,1.8c-1.3,0.4-2.5,0.7-3.8,0.9c-1.3,0.2-2.5,0.2-3.6,0.2c-2.4,0-4.6-0.4-6.7-1.2
				c-2.1-0.8-3.9-1.9-5.5-3.4c-1.6-1.5-2.8-3.4-3.7-5.7c-0.9-2.3-1.4-4.9-1.4-7.9c0-2.3,0.4-4.4,1.2-6.4c0.8-2,1.9-3.8,3.3-5.3
				c1.4-1.5,3.2-2.7,5.3-3.6c2.1-0.9,4.4-1.3,7-1.3c2.2,0,4.3,0.3,6.2,1c1.9,0.7,3.5,1.7,4.8,3c1.3,1.3,2.4,3,3.1,4.9
				c0.8,1.9,1.1,4.1,1.1,6.6c0,0.8,0,1.4-0.1,1.9c-0.1,0.5-0.2,0.9-0.4,1.1c-0.2,0.3-0.4,0.5-0.7,0.6c-0.3,0.1-0.7,0.2-1.1,0.2
				H349.1z M361.9,103.8c0-0.8-0.1-1.6-0.3-2.4c-0.2-0.8-0.5-1.4-1-2c-0.5-0.6-1.1-1.1-1.8-1.5c-0.8-0.4-1.7-0.6-2.8-0.6
				c-1.9,0-3.4,0.6-4.5,1.7c-1.1,1.1-1.8,2.7-2.2,4.8H361.9z"/>
			<path fill="#7C1F5E" d="M397.5,98.3c-0.3,0.4-0.5,0.7-0.8,0.9c-0.3,0.2-0.7,0.3-1.1,0.3c-0.5,0-1-0.1-1.4-0.3
				c-0.5-0.2-1-0.4-1.6-0.7c-0.6-0.2-1.2-0.5-1.9-0.7c-0.7-0.2-1.5-0.3-2.4-0.3c-1.3,0-2.3,0.2-3,0.7c-0.7,0.5-1,1.2-1,2
				c0,0.6,0.2,1.2,0.7,1.6c0.4,0.4,1,0.8,1.8,1.1c0.7,0.3,1.6,0.6,2.5,0.9c0.9,0.3,1.9,0.6,2.9,0.9c1,0.3,1.9,0.8,2.9,1.2
				c0.9,0.5,1.8,1,2.5,1.7c0.7,0.7,1.3,1.5,1.8,2.5c0.4,1,0.7,2.2,0.7,3.5c0,1.7-0.3,3.2-0.9,4.6s-1.5,2.6-2.7,3.7
				c-1.2,1-2.7,1.8-4.5,2.4c-1.8,0.6-3.8,0.8-6.1,0.8c-1.2,0-2.3-0.1-3.5-0.3c-1.2-0.2-2.3-0.5-3.3-0.9s-2.1-0.8-3-1.3
				c-0.9-0.5-1.7-1.1-2.4-1.7l2.4-3.7c0.3-0.4,0.6-0.8,1-1s0.9-0.4,1.6-0.4c0.6,0,1.1,0.1,1.6,0.4c0.5,0.3,1,0.5,1.5,0.8
				c0.5,0.3,1.2,0.6,1.9,0.9c0.7,0.3,1.7,0.4,2.8,0.4c0.8,0,1.4-0.1,2-0.2c0.5-0.2,1-0.4,1.3-0.7c0.3-0.3,0.6-0.6,0.7-0.9
				c0.2-0.3,0.2-0.7,0.2-1.1c0-0.7-0.2-1.2-0.7-1.7c-0.5-0.4-1.1-0.8-1.8-1.1c-0.7-0.3-1.6-0.6-2.5-0.9c-0.9-0.3-1.9-0.6-2.9-0.9
				c-1-0.3-1.9-0.8-2.9-1.3c-0.9-0.5-1.8-1.1-2.5-1.9c-0.7-0.8-1.3-1.7-1.8-2.8c-0.5-1.1-0.7-2.4-0.7-4c0-1.4,0.3-2.8,0.8-4.1
				c0.6-1.3,1.4-2.4,2.5-3.4c1.1-1,2.5-1.8,4.2-2.3s3.6-0.9,5.9-0.9c1.2,0,2.4,0.1,3.5,0.3c1.1,0.2,2.2,0.5,3.2,0.9
				c1,0.4,1.9,0.9,2.7,1.4c0.8,0.5,1.6,1.1,2.2,1.7L397.5,98.3z"/>
			<path fill="#7C1F5E" d="M426.7,98.3c-0.3,0.4-0.5,0.7-0.8,0.9c-0.3,0.2-0.7,0.3-1.1,0.3c-0.5,0-1-0.1-1.4-0.3
				c-0.5-0.2-1-0.4-1.6-0.7c-0.6-0.2-1.2-0.5-1.9-0.7c-0.7-0.2-1.5-0.3-2.4-0.3c-1.3,0-2.3,0.2-3,0.7c-0.7,0.5-1,1.2-1,2
				c0,0.6,0.2,1.2,0.7,1.6c0.4,0.4,1,0.8,1.8,1.1c0.7,0.3,1.6,0.6,2.5,0.9c0.9,0.3,1.9,0.6,2.9,0.9c1,0.3,1.9,0.8,2.9,1.2
				c0.9,0.5,1.8,1,2.5,1.7c0.7,0.7,1.3,1.5,1.8,2.5c0.4,1,0.7,2.2,0.7,3.5c0,1.7-0.3,3.2-0.9,4.6s-1.5,2.6-2.7,3.7
				c-1.2,1-2.7,1.8-4.5,2.4c-1.8,0.6-3.8,0.8-6.1,0.8c-1.2,0-2.3-0.1-3.5-0.3c-1.2-0.2-2.3-0.5-3.3-0.9c-1.1-0.4-2.1-0.8-3-1.3
				c-0.9-0.5-1.7-1.1-2.4-1.7l2.4-3.7c0.3-0.4,0.6-0.8,1-1s0.9-0.4,1.6-0.4c0.6,0,1.1,0.1,1.6,0.4c0.5,0.3,1,0.5,1.5,0.8
				c0.5,0.3,1.2,0.6,1.9,0.9c0.7,0.3,1.7,0.4,2.8,0.4c0.8,0,1.4-0.1,2-0.2c0.5-0.2,1-0.4,1.3-0.7c0.3-0.3,0.6-0.6,0.7-0.9
				c0.2-0.3,0.2-0.7,0.2-1.1c0-0.7-0.2-1.2-0.7-1.7c-0.5-0.4-1.1-0.8-1.8-1.1c-0.7-0.3-1.6-0.6-2.5-0.9c-0.9-0.3-1.9-0.6-2.9-0.9
				c-1-0.3-1.9-0.8-2.9-1.3c-0.9-0.5-1.8-1.1-2.5-1.9c-0.7-0.8-1.3-1.7-1.8-2.8c-0.5-1.1-0.7-2.4-0.7-4c0-1.4,0.3-2.8,0.8-4.1
				c0.6-1.3,1.4-2.4,2.5-3.4c1.1-1,2.5-1.8,4.2-2.3s3.6-0.9,5.9-0.9c1.2,0,2.4,0.1,3.5,0.3c1.1,0.2,2.2,0.5,3.2,0.9
				c1,0.4,1.9,0.9,2.7,1.4c0.8,0.5,1.6,1.1,2.2,1.7L426.7,98.3z"/>
			<path fill="#7C1F5E" d="M444.4,75.9v48.9h-10.1V75.9H444.4z"/>
			<path fill="#7C1F5E" d="M483.4,90.9l-18.1,42.7c-0.3,0.7-0.7,1.2-1.1,1.5c-0.4,0.3-1.1,0.5-2.1,0.5h-7.6l6.5-13.7l-13.5-30.9h9
				c0.8,0,1.4,0.2,1.8,0.5c0.4,0.3,0.7,0.8,0.9,1.2l5.6,14.6c0.5,1.3,0.9,2.7,1.3,4.1c0.2-0.7,0.5-1.4,0.7-2.1
				c0.2-0.7,0.5-1.4,0.8-2.1l5-14.5c0.2-0.5,0.5-0.9,1-1.3c0.5-0.3,1-0.5,1.6-0.5H483.4z"/>
		</g>
	</g>
</g>
<g id="Single_Color">
</g>
<g id="_x31__color">
</g>
<g id="_x31_color_v3">
</g>
<g id="_x31_color_v4">
</g>
</svg>
